<svg xmlns="http://www.w3.org/2000/svg" xml:space="preserve" width="512" height="512" viewBox="0 0 480 480"><path fill="#5a6470" d="M32 392h80v40a8 8 0 0 1-8 8H40a8 8 0 0 1-8-8zm336 0h80v40a8 8 0 0 1-8 8h-64a8 8 0 0 1-8-8zm0 0" data-original="#5a6470"/><path fill="#cfdfe8" d="M8 344h464v32c0 8.836-7.164 16-16 16H24c-8.836 0-16-7.164-16-16zm0 0" data-original="#cfdfe8"/><path fill="#2d75bb" d="M432 168H48L8 216v128h464V216zm0 0" data-original="#2d75bb"/><path fill="#32b1cc" d="M432 168H48L112 8h256zm0 0" data-original="#32b1cc"/><path fill="#cfdfe8" d="M384 136H96l40-96h208zm0 0" data-original="#cfdfe8"/><path fill="#2d75bb" d="M184 112a7.999 7.999 0 0 1-6.398-12.8l24-32c2.648-3.536 7.664-4.25 11.199-1.598 3.535 2.648 4.25 7.664 1.597 11.199l-24 32A7.99 7.99 0 0 1 184 112m48 0a7.999 7.999 0 0 1-6.398-12.8l24-32c2.648-3.536 7.664-4.25 11.199-1.598 3.535 2.648 4.25 7.664 1.597 11.199l-24 32A7.99 7.99 0 0 1 232 112m48 0a7.999 7.999 0 0 1-6.398-12.8l24-32c2.648-3.536 7.664-4.25 11.199-1.598 3.535 2.648 4.25 7.664 1.597 11.199l-24 32A7.99 7.99 0 0 1 280 112m0 0" data-original="#2d75bb"/><path fill="#cfdfe8" d="M224 232h32c26.508 0 48 21.492 48 48v64H176v-64c0-26.508 21.492-48 48-48m0 0" data-original="#cfdfe8"/><path fill="#5a6470" d="M176 312h128v32H176zm0 0" data-original="#5a6470"/><path fill="#32b1cc" d="M176 280h128v32H176zm0 0" data-original="#32b1cc"/><path fill="#cfdfe8" d="M144 320H48a8 8 0 0 1 0-16h96a8 8 0 0 1 0 16m288 0h-96a8 8 0 0 1 0-16h96a8 8 0 0 1 0 16m0 0" data-original="#cfdfe8"/><path fill="#5a6470" d="M232 376h16v16h-16zm-32 0h16v16h-16zm-32 0h16v16h-16zm128 0h16v16h-16zm-32 0h16v16h-16zm0 0" data-original="#5a6470"/><path fill="#2d75bb" d="M472 128h-56l24-32h32zM8 128h56L40 96H8zm0 0" data-original="#2d75bb"/><path fill="#fcf05a" d="M128 248c0 17.672-14.328 32-32 32s-32-14.328-32-32 14.328-32 32-32 32 14.328 32 32m288 0c0 17.672-14.328 32-32 32s-32-14.328-32-32 14.328-32 32-32 32 14.328 32 32m0 0" data-original="#fcf05a"/><path d="M89.344 140.441A8 8 0 0 0 96 144h288a7.99 7.99 0 0 0 6.656-3.563 8 8 0 0 0 .727-7.515l-40-96A8 8 0 0 0 344 32H136a8 8 0 0 0-7.383 4.922l-40 96a8 8 0 0 0 .727 7.52zM141.336 48h197.328L372 128H108zm0 0" data-original="#000000"/><path d="m201.602 67.2-24 32c-2.653 3.534-1.938 8.55 1.597 11.198 3.535 2.653 8.551 1.938 11.2-1.597l24-32c2.652-3.535 1.937-8.551-1.598-11.2-3.535-2.652-8.551-1.937-11.2 1.598zm48 0-24 32c-2.653 3.534-1.938 8.55 1.597 11.198 3.535 2.653 8.551 1.938 11.2-1.597l24-32c2.652-3.535 1.937-8.551-1.598-11.2-3.535-2.652-8.551-1.937-11.2 1.598zm48 0-24 32c-2.653 3.534-1.938 8.55 1.597 11.198 3.535 2.653 8.551 1.938 11.2-1.597l24-32c2.652-3.535 1.937-8.551-1.598-11.2-3.535-2.652-8.551-1.937-11.2 1.598zM144 304H48a8 8 0 0 0 0 16h96a8 8 0 0 0 0-16m184 8a8 8 0 0 0 8 8h96a8 8 0 0 0 0-16h-96a8 8 0 0 0-8 8m0 0" data-original="#000000"/><path d="M472 88h-32a8 8 0 0 0-6.398 3.2l-15.457 20.609L375.434 5.023A8 8 0 0 0 368 0H112a8 8 0 0 0-7.434 5.023L61.856 111.81 46.398 91.2A8 8 0 0 0 40 88H8a8 8 0 0 0-8 8v32a8 8 0 0 0 8 8h44.184l-11.145 27.863-39.2 47.016A8 8 0 0 0 0 216v160c0 13.254 10.746 24 24 24v32c0 8.836 7.164 16 16 16h64c8.836 0 16-7.164 16-16v-32h240v32c0 8.836 7.164 16 16 16h64c8.836 0 16-7.164 16-16v-32c13.254 0 24-10.746 24-24V216a8 8 0 0 0-1.855-5.121l-39.2-47.016L427.816 136H472a8 8 0 0 0 8-8V96a8 8 0 0 0-8-8M16 120v-16h20l12 16zM117.414 16h245.172l57.598 144H59.816zM104 432H40v-32h64zm336 0h-64v-32h64zm24-56a8 8 0 0 1-8 8H312v-8a8 8 0 0 0-16 0v8h-16v-8a8 8 0 0 0-16 0v8h-16v-8a8 8 0 0 0-16 0v8h-16v-8a8 8 0 0 0-16 0v8h-16v-8a8 8 0 0 0-16 0v8H24a8 8 0 0 1-8-8v-24h448zm-168-88v16H184v-16zm-111.2-16c3.829-18.61 20.2-31.977 39.2-32h32c19 .023 35.371 13.39 39.2 32zm-.8 48h112v16H184zm280 16H312v-56c-.035-30.914-25.086-55.965-56-56h-32c-30.914.035-55.965 25.086-56 56v56H16V218.895L51.742 176h376.516L464 218.895zm0-216h-32l12-16h20zm0 0" data-original="#000000"/><path d="M96 288c22.09 0 40-17.91 40-40s-17.91-40-40-40-40 17.91-40 40c.027 22.082 17.918 39.973 40 40m0-64c13.254 0 24 10.746 24 24s-10.746 24-24 24-24-10.746-24-24 10.746-24 24-24m288 64c22.09 0 40-17.91 40-40s-17.91-40-40-40-40 17.91-40 40c.027 22.082 17.918 39.973 40 40m0-64c13.254 0 24 10.746 24 24s-10.746 24-24 24-24-10.746-24-24 10.746-24 24-24m0 0" data-original="#000000"/></svg>